<?xml version="1.0" encoding="utf-8"?>
<!-- Generator: Adobe Illustrator 16.0.0, SVG Export Plug-In . SVG Version: 6.00 Build 0)  -->
<!DOCTYPE svg PUBLIC "-//W3C//DTD SVG 1.1//EN" "http://www.w3.org/Graphics/SVG/1.1/DTD/svg11.dtd">
<svg version="1.1" id="Layer_1" xmlns="http://www.w3.org/2000/svg" xmlns:xlink="http://www.w3.org/1999/xlink" x="0px" y="0px"
	 width="257.333px" height="55.25px" viewBox="0 0 257.333 55.25" enable-background="new 0 0 257.333 55.25" xml:space="preserve">
<g>
	<linearGradient id="SVGID_1_" gradientUnits="userSpaceOnUse" x1="4.3003" y1="29.6973" x2="255.1665" y2="29.6973">
		<stop  offset="0.0014" style="stop-color:#D8E0E3;stop-opacity:0"/>
		<stop  offset="0.5189" style="stop-color:#D8E0E3"/>
		<stop  offset="1" style="stop-color:#D8E0E3;stop-opacity:0"/>
	</linearGradient>
	<polygon fill="url(#SVGID_1_)" points="164.711,5.691 164.543,6.668 158.841,15.88 150.589,5.83 150.667,5.691 4.3,5.691 
		4.3,53.703 255.167,53.703 255.167,5.691 	"/>
	<g>
		<path fill="#005B7F" d="M11.459,36.255H6.598V10.221h4.861V36.255z"/>
		<path fill="#005B7F" d="M19.489,10.248c0.144,0.017,0.273,0.053,0.387,0.107c0.113,0.055,0.225,0.133,0.333,0.234
			c0.108,0.102,0.228,0.237,0.36,0.405l13.666,17.411c-0.047-0.42-0.081-0.831-0.099-1.232c-0.019-0.403-0.027-0.778-0.027-1.125
			V10.221h4.267v26.035h-2.502c-0.384,0-0.702-0.06-0.954-0.18c-0.252-0.12-0.499-0.336-0.738-0.648L20.569,18.089
			c0.037,0.384,0.063,0.765,0.081,1.143c0.019,0.378,0.027,0.723,0.027,1.036v15.988H16.41V10.221h2.539
			C19.165,10.221,19.345,10.229,19.489,10.248z"/>
		<path fill="#005B7F" d="M61.08,10.221v3.979h-7.833v22.056h-4.843V14.199h-7.868v-3.979H61.08z"/>
		<path fill="#005B7F" d="M79.679,10.221v3.853H68.137v7.22h9.092v3.727h-9.092v7.363h11.542v3.872h-16.42V10.221H79.679z"/>
		<path fill="#005B7F" d="M86.051,10.248c0.145,0.017,0.273,0.053,0.388,0.107c0.114,0.055,0.225,0.133,0.333,0.234
			c0.107,0.102,0.228,0.237,0.359,0.405l13.666,17.411c-0.048-0.42-0.081-0.831-0.1-1.232c-0.018-0.403-0.026-0.778-0.026-1.125
			V10.221h4.267v26.035h-2.503c-0.384,0-0.702-0.06-0.955-0.18c-0.251-0.12-0.498-0.336-0.738-0.648L87.132,18.089
			c0.037,0.384,0.063,0.765,0.082,1.143c0.017,0.378,0.026,0.723,0.026,1.036v15.988h-4.267V10.221h2.539
			C85.728,10.221,85.908,10.229,86.051,10.248z"/>
		<path fill="#005B7F" d="M127.643,10.221v3.979h-7.832v22.056h-4.844V14.199h-7.869v-3.979H127.643z"/>
		<path fill="#005B7F" d="M125.752,23.525h9.326v3.709h-9.326V23.525z"/>
	</g>
	<path fill="#EC1C24" d="M157.037,9.231c0.01-0.012-3.224-2.949-3.534-3.192c-4.521-3.541-11.248-1.938-13.7,3.042
		c-2.761,5.608-1.85,12.588,1.334,17.836c1.553,2.56,3.354,5.021,5.486,7.151c1.457,1.455,3.114,2.776,4.732,4.054
		c2.73,2.153,4.828,2.97,7.798,0.784c5.746-4.228,12.588-9.101,15.192-15.972c0.646-1.703,1.056-3.691,1.022-5.516
		c-0.116-6.579-4.226-13.121-11.657-11.581C161.555,6.282,158.553,7.629,157.037,9.231z"/>
	<g>
		
			<image overflow="visible" opacity="0.4" width="118" height="216" xlink:href="2F5FB9D317085333.png"  transform="matrix(0.1757 0 0 0.1757 137.4321 3.5176)">
		</image>
		<g>
			<path fill="#FFFFFF" d="M153.273,8.854c-1.147-1.455-2.669-2.198-4.479-2.557c-4.546-0.903-7.01,2.583-8.246,6.873
				c-2.187,7.594,3.509,15.039,8.508,19.477c1.345,1.194,3.938,4.017,5.395,5.044v-2.415c-3.79-3.286-8.947-8.534-11.415-13.159
				c-2.083-3.903-2.734-12.553,2.633-13.872c1.51-0.37,3.155,0.081,4.501,0.853c0.696,0.401,1.343,0.901,1.902,1.506
				c0.124,0.133,1.226,1.599,1.26,1.557c0.59-0.711,1.02-1.608,0.513-2.469C153.666,9.389,153.475,9.11,153.273,8.854z"/>
		</g>
	</g>
	<g>
		<g>
			
				<image overflow="visible" opacity="0.4" width="116" height="198" xlink:href="2F5FB9D317085336.png"  transform="matrix(0.1757 0 0 0.1757 155.7407 5.7085)">
			</image>
			<g>
				<path fill="#FFFFFF" d="M159.431,10.83c1.139-1.251,2.56-2.005,4.374-2.35c4.481-0.852,6.908,2.424,8.129,6.456
					c2.16,7.137-3.451,14.138-8.374,18.312c-1.325,1.123-2.722,2.217-5.182,3.467l-0.001-2.269
					c4.759-3.374,8.681-6.75,11.109-11.097c1.342-2.399,1.694-5.656,1.246-8.358c-0.389-2.351-1.793-4.368-4.119-4.872
					c-2.195-0.477-4.576,0.954-5.896,2.823c-0.403,0.569-0.152,1.509-0.112,2.154c0.153,2.516,0.583,5.032,1.042,7.505
					c0.221,1.19,0.421,2.387,0.737,3.554c0.138,0.505,0.295,1.007,0.493,1.491c0.068,0.167,0.41,0.779,0.25,0.948
					c-0.053,0.054-1.034,0.871-1.042,0.857c-0.769-1.136-0.991-2.551-1.319-3.865c-0.469-1.886-0.823-3.796-1.116-5.718
					c-0.271-1.766-0.538-3.533-0.871-5.288C158.527,13.246,158.47,11.887,159.431,10.83z"/>
			</g>
		</g>
	</g>
	<g>
		<g>
			
				<image overflow="visible" opacity="0.4" width="102" height="149" xlink:href="2F5FB9D317085335.png"  transform="matrix(0.1757 0 0 0.1757 145.5005 10.4731)">
			</image>
			<g>
				<path fill="#FFFFFF" d="M155.91,13.11c-0.061-0.006-0.133,0.015-0.221,0.074c-0.545,0.371-0.768,1.032-1.067,1.581
					c-1.511,2.778-3.34,5.391-5.016,8.074c-0.488,0.78-0.978,1.558-1.465,2.337c-0.074,0.12,0.688,1.005,0.875,0.997
					c0.373-0.017,0.739-1.018,0.896-1.278c0.694-1.153,1.534-2.214,2.486-3.174c0.079-0.079,0.157-0.171,0.253-0.231
					c0.771-0.48,3.196-0.376,3.586,0.582c0.688,1.689,0.649,3.864,0.966,5.653c0.057,0.323,0.646,4.867,0.703,5.19l1.782-1.544
					c-0.135-0.635-0.814-4.103-0.951-4.738c-0.525-2.458-0.856-4.939-1.383-7.397c-0.241-1.135-0.449-2.277-0.649-3.419
					c-0.102-0.573-0.197-1.148-0.303-1.72C156.352,13.83,156.283,13.152,155.91,13.11z M153.385,19.944
					c-0.001-0.003-0.003-0.006-0.005-0.011c-0.061-0.146,0.278-0.508,0.349-0.632c0.153-0.276,0.279-0.564,0.424-0.844
					c0.231-0.445,0.466-0.888,0.718-1.32c0.073-0.125,0.119-0.36,0.285-0.399c0.172-0.042,0.242,0.12,0.269,0.257
					c0.104,0.537,0.173,1.106,0.255,1.657c0.044,0.281,0.091,0.561,0.149,0.838c0.04,0.193,0.223,0.571,0.142,0.764
					c-0.064,0.159-0.196,0.061-0.333,0.038c-0.471-0.078-0.938-0.18-1.418-0.199C154.022,20.084,153.5,20.151,153.385,19.944z"/>
			</g>
		</g>
	</g>
	<g>
		<path fill="#005B7F" d="M197.095,10.204v3.853h-11.54v7.221h9.092v3.727h-9.092v7.363h11.54v3.872h-16.421V10.204H197.095z"/>
		<path fill="#005B7F" d="M214.028,26.633c0.175,0.414,0.345,0.831,0.514,1.251c0.167-0.432,0.341-0.858,0.521-1.278
			c0.181-0.42,0.372-0.822,0.576-1.206l7.706-14.422c0.096-0.18,0.194-0.323,0.298-0.432c0.101-0.108,0.216-0.187,0.342-0.235
			c0.126-0.047,0.266-0.078,0.423-0.089c0.156-0.013,0.342-0.018,0.558-0.018h3.656v26.035h-4.269V19.422
			c0-0.313,0.01-0.654,0.027-1.027c0.018-0.372,0.045-0.749,0.081-1.134l-7.868,14.764c-0.18,0.336-0.413,0.597-0.702,0.784
			c-0.287,0.186-0.624,0.279-1.009,0.279h-0.666c-0.385,0-0.72-0.093-1.008-0.279c-0.287-0.187-0.522-0.448-0.703-0.784
			l-7.976-14.818c0.047,0.396,0.082,0.783,0.101,1.162c0.017,0.378,0.025,0.729,0.025,1.054v16.816h-4.265V10.204h3.652
			c0.216,0,0.402,0.005,0.559,0.018c0.157,0.012,0.297,0.042,0.424,0.089c0.126,0.048,0.242,0.126,0.351,0.235
			c0.107,0.108,0.211,0.252,0.306,0.432l7.779,14.458C213.665,25.82,213.853,26.219,214.028,26.633z"/>
		<path fill="#005B7F" d="M237.983,26.065v10.173h-4.842V10.204h7.938c1.776,0,3.298,0.183,4.565,0.549
			c1.266,0.366,2.304,0.879,3.114,1.539c0.81,0.661,1.403,1.449,1.782,2.368c0.379,0.918,0.567,1.929,0.567,3.033
			c0,0.876-0.13,1.705-0.387,2.485c-0.26,0.78-0.631,1.488-1.117,2.125c-0.485,0.636-1.086,1.194-1.802,1.675
			c-0.713,0.48-1.526,0.864-2.438,1.152c0.613,0.348,1.141,0.846,1.585,1.494l6.518,9.615h-4.357c-0.42,0-0.776-0.084-1.071-0.252
			c-0.295-0.169-0.543-0.409-0.746-0.721l-5.474-8.335c-0.205-0.312-0.431-0.534-0.676-0.667c-0.246-0.132-0.61-0.198-1.09-0.198
			H237.983z M237.983,22.59h3.024c0.913,0,1.708-0.113,2.387-0.342c0.678-0.228,1.236-0.543,1.674-0.945
			c0.438-0.402,0.766-0.879,0.981-1.431c0.216-0.552,0.324-1.159,0.324-1.818c0-1.321-0.436-2.335-1.306-3.044
			c-0.871-0.708-2.199-1.062-3.988-1.062h-3.097V22.59z"/>
	</g>
	<g>
		<path fill="#005B7F" d="M9.234,49.536v-5.154h1.041v5.154H9.234z"/>
		<path fill="#6D6E70" d="M11.397,49.536v-3.734h0.57v0.53c0.274-0.409,0.67-0.614,1.188-0.614c0.226,0,0.432,0.039,0.621,0.121
			c0.189,0.08,0.33,0.187,0.424,0.317c0.094,0.132,0.159,0.288,0.197,0.468c0.023,0.118,0.035,0.323,0.035,0.616v2.296h-0.633
			v-2.271c0-0.258-0.025-0.45-0.074-0.579c-0.049-0.127-0.136-0.229-0.262-0.305c-0.125-0.076-0.272-0.115-0.441-0.115
			c-0.27,0-0.502,0.086-0.698,0.258c-0.196,0.171-0.294,0.495-0.294,0.974v2.039H11.397z"/>
		<path fill="#6D6E70" d="M15.33,48.422l0.626-0.099c0.035,0.25,0.133,0.443,0.293,0.577s0.385,0.199,0.673,0.199
			c0.291,0,0.507-0.059,0.647-0.178c0.141-0.117,0.211-0.257,0.211-0.416c0-0.143-0.062-0.256-0.186-0.337
			c-0.087-0.057-0.302-0.128-0.647-0.215c-0.464-0.117-0.786-0.219-0.965-0.305c-0.179-0.085-0.315-0.203-0.408-0.354
			c-0.093-0.151-0.139-0.318-0.139-0.502c0-0.166,0.039-0.32,0.114-0.462c0.076-0.142,0.18-0.26,0.311-0.354
			c0.099-0.073,0.233-0.134,0.402-0.184c0.17-0.052,0.353-0.076,0.547-0.076c0.293,0,0.551,0.042,0.772,0.127
			c0.221,0.084,0.384,0.198,0.49,0.342c0.105,0.145,0.178,0.337,0.217,0.579l-0.619,0.085c-0.028-0.193-0.109-0.344-0.245-0.451
			c-0.134-0.107-0.325-0.161-0.571-0.161c-0.291,0-0.499,0.048-0.623,0.144c-0.124,0.097-0.187,0.209-0.187,0.339
			c0,0.081,0.026,0.155,0.077,0.22c0.051,0.068,0.132,0.125,0.243,0.17c0.063,0.022,0.25,0.077,0.559,0.162
			c0.449,0.118,0.76,0.217,0.938,0.293c0.177,0.075,0.316,0.188,0.417,0.333c0.101,0.145,0.151,0.324,0.151,0.541
			c0,0.21-0.062,0.409-0.185,0.597c-0.123,0.186-0.3,0.33-0.533,0.432s-0.495,0.152-0.788,0.152c-0.485,0-0.854-0.1-1.109-0.302
			C15.562,49.117,15.4,48.818,15.33,48.422z"/>
		<path fill="#6D6E70" d="M19.368,45.109v-0.728H20v0.728H19.368z M19.368,49.536v-3.734H20v3.734H19.368z"/>
		<path fill="#6D6E70" d="M21.027,49.847l0.616,0.091c0.025,0.189,0.097,0.328,0.214,0.415c0.158,0.117,0.372,0.176,0.644,0.176
			c0.293,0,0.52-0.059,0.679-0.176c0.16-0.117,0.268-0.281,0.324-0.493c0.032-0.129,0.048-0.399,0.045-0.812
			c-0.276,0.325-0.621,0.488-1.033,0.488c-0.513,0-0.911-0.185-1.192-0.555c-0.282-0.371-0.422-0.815-0.422-1.333
			c0-0.356,0.065-0.686,0.194-0.987c0.129-0.301,0.316-0.533,0.561-0.697c0.246-0.165,0.533-0.246,0.864-0.246
			c0.44,0,0.804,0.178,1.09,0.534v-0.45h0.583v3.229c0,0.582-0.059,0.993-0.177,1.235c-0.119,0.243-0.306,0.435-0.563,0.575
			c-0.256,0.141-0.573,0.212-0.947,0.212c-0.445,0-0.805-0.101-1.08-0.301C21.151,50.552,21.018,50.249,21.027,49.847z
			 M21.552,47.603c0,0.49,0.097,0.848,0.292,1.073c0.195,0.225,0.438,0.337,0.731,0.337c0.291,0,0.535-0.112,0.731-0.337
			c0.198-0.224,0.295-0.574,0.295-1.052c0-0.458-0.101-0.803-0.304-1.034c-0.203-0.232-0.448-0.349-0.733-0.349
			c-0.282,0-0.521,0.114-0.718,0.343C21.65,46.813,21.552,47.152,21.552,47.603z"/>
		<path fill="#6D6E70" d="M25.33,49.536v-5.154h0.632v1.85c0.296-0.343,0.669-0.514,1.119-0.514c0.277,0,0.517,0.055,0.721,0.163
			c0.203,0.109,0.35,0.26,0.438,0.451c0.088,0.193,0.132,0.473,0.132,0.838v2.366h-0.633V47.17c0-0.317-0.069-0.548-0.206-0.691
			s-0.331-0.216-0.582-0.216c-0.188,0-0.364,0.048-0.529,0.146s-0.283,0.229-0.353,0.396c-0.071,0.166-0.106,0.396-0.106,0.688
			v2.043H25.33z"/>
		<path fill="#6D6E70" d="M30.897,48.971l0.091,0.559c-0.178,0.038-0.337,0.057-0.478,0.057c-0.23,0-0.408-0.037-0.535-0.109
			c-0.127-0.072-0.216-0.168-0.268-0.286c-0.052-0.119-0.077-0.368-0.077-0.748v-2.148h-0.464v-0.492h0.464v-0.926l0.629-0.379
			v1.305h0.637v0.492H30.26v2.185c0,0.18,0.012,0.296,0.034,0.348c0.022,0.053,0.059,0.092,0.109,0.123
			c0.05,0.03,0.123,0.045,0.216,0.045C30.689,48.994,30.782,48.987,30.897,48.971z"/>
		<path fill="#6D6E70" d="M31.443,48.422l0.626-0.099c0.035,0.25,0.132,0.443,0.293,0.577c0.16,0.134,0.385,0.199,0.673,0.199
			c0.291,0,0.506-0.059,0.647-0.178c0.141-0.117,0.211-0.257,0.211-0.416c0-0.143-0.062-0.256-0.186-0.337
			c-0.087-0.057-0.303-0.128-0.647-0.215c-0.464-0.117-0.786-0.219-0.965-0.305c-0.18-0.085-0.315-0.203-0.408-0.354
			c-0.092-0.151-0.139-0.318-0.139-0.502c0-0.166,0.038-0.32,0.114-0.462c0.077-0.142,0.18-0.26,0.311-0.354
			c0.099-0.073,0.233-0.134,0.403-0.184c0.17-0.052,0.353-0.076,0.547-0.076c0.293,0,0.55,0.042,0.772,0.127
			c0.222,0.084,0.385,0.198,0.49,0.342c0.106,0.145,0.179,0.337,0.218,0.579l-0.619,0.085c-0.029-0.193-0.109-0.344-0.245-0.451
			c-0.135-0.107-0.325-0.161-0.571-0.161c-0.291,0-0.499,0.048-0.623,0.144c-0.124,0.097-0.186,0.209-0.186,0.339
			c0,0.081,0.026,0.155,0.078,0.22c0.051,0.068,0.132,0.125,0.242,0.17c0.063,0.022,0.25,0.077,0.559,0.162
			c0.448,0.118,0.761,0.217,0.938,0.293c0.177,0.075,0.316,0.188,0.417,0.333c0.101,0.145,0.15,0.324,0.15,0.541
			c0,0.21-0.062,0.409-0.185,0.597c-0.123,0.186-0.301,0.33-0.533,0.432c-0.232,0.102-0.495,0.152-0.788,0.152
			c-0.485,0-0.855-0.1-1.109-0.302C31.675,49.117,31.513,48.818,31.443,48.422z"/>
		<path fill="#6D6E70" d="M37.661,45.109v-0.728h0.633v0.728H37.661z M37.661,49.536v-3.734h0.633v3.734H37.661z"/>
		<path fill="#6D6E70" d="M39.438,49.536v-3.734h0.569v0.53c0.274-0.409,0.671-0.614,1.189-0.614c0.225,0,0.432,0.039,0.621,0.121
			c0.189,0.08,0.33,0.187,0.424,0.317c0.094,0.132,0.159,0.288,0.197,0.468c0.022,0.118,0.035,0.323,0.035,0.616v2.296H41.84v-2.271
			c0-0.258-0.025-0.45-0.074-0.579c-0.049-0.127-0.137-0.229-0.262-0.305s-0.272-0.115-0.441-0.115c-0.27,0-0.502,0.086-0.698,0.258
			c-0.196,0.171-0.294,0.495-0.294,0.974v2.039H39.438z"/>
		<path fill="#6D6E70" d="M45.005,48.971l0.092,0.559c-0.178,0.038-0.338,0.057-0.479,0.057c-0.23,0-0.408-0.037-0.534-0.109
			s-0.216-0.168-0.268-0.286c-0.051-0.119-0.077-0.368-0.077-0.748v-2.148h-0.464v-0.492h0.464v-0.926l0.629-0.379v1.305h0.636
			v0.492h-0.636v2.185c0,0.18,0.012,0.296,0.033,0.348c0.022,0.053,0.059,0.092,0.109,0.123c0.051,0.03,0.123,0.045,0.217,0.045
			C44.797,48.994,44.891,48.987,45.005,48.971z"/>
		<path fill="#6D6E70" d="M45.569,47.669c0-0.691,0.192-1.203,0.576-1.536c0.322-0.277,0.713-0.415,1.175-0.415
			c0.514,0,0.933,0.168,1.259,0.505c0.326,0.336,0.489,0.801,0.489,1.395c0,0.48-0.072,0.857-0.216,1.134
			c-0.145,0.274-0.354,0.489-0.63,0.642s-0.576,0.228-0.902,0.228c-0.523,0-0.946-0.167-1.268-0.501
			C45.729,48.782,45.569,48.3,45.569,47.669z M46.219,47.669c0,0.479,0.104,0.837,0.312,1.075c0.209,0.237,0.471,0.355,0.788,0.355
			c0.313,0,0.576-0.118,0.785-0.358c0.208-0.239,0.312-0.603,0.312-1.093c0-0.462-0.104-0.812-0.314-1.05
			c-0.209-0.238-0.471-0.357-0.782-0.357c-0.317,0-0.579,0.118-0.788,0.355C46.324,46.833,46.219,47.191,46.219,47.669z"/>
		<path fill="#6D6E70" d="M54.607,49.076c-0.234,0.199-0.46,0.34-0.677,0.421c-0.217,0.082-0.45,0.123-0.698,0.123
			c-0.411,0-0.726-0.1-0.946-0.3c-0.22-0.201-0.33-0.457-0.33-0.769c0-0.183,0.042-0.35,0.124-0.501
			c0.084-0.151,0.192-0.272,0.327-0.364c0.135-0.091,0.286-0.161,0.456-0.207c0.124-0.033,0.312-0.064,0.562-0.096
			c0.511-0.061,0.887-0.133,1.129-0.218c0.002-0.087,0.003-0.142,0.003-0.165c0-0.259-0.06-0.439-0.18-0.546
			c-0.162-0.143-0.402-0.214-0.721-0.214c-0.298,0-0.518,0.053-0.659,0.157c-0.143,0.104-0.247,0.289-0.315,0.553l-0.619-0.083
			c0.057-0.266,0.149-0.48,0.277-0.643c0.13-0.163,0.315-0.288,0.56-0.376c0.244-0.088,0.526-0.132,0.848-0.132
			c0.318,0,0.578,0.037,0.777,0.112c0.199,0.074,0.346,0.169,0.44,0.283c0.094,0.113,0.159,0.257,0.196,0.432
			c0.021,0.106,0.032,0.302,0.032,0.583v0.844c0,0.589,0.014,0.961,0.04,1.116c0.027,0.157,0.081,0.306,0.16,0.448h-0.661
			C54.668,49.405,54.626,49.251,54.607,49.076z M54.555,47.662c-0.23,0.094-0.575,0.174-1.034,0.239
			c-0.26,0.037-0.444,0.079-0.552,0.127c-0.108,0.046-0.191,0.115-0.25,0.204c-0.059,0.091-0.088,0.191-0.088,0.302
			c0,0.169,0.063,0.31,0.191,0.422c0.127,0.112,0.314,0.169,0.561,0.169c0.244,0,0.46-0.054,0.65-0.159
			c0.19-0.107,0.33-0.253,0.418-0.438c0.068-0.143,0.103-0.354,0.103-0.634V47.662z"/>
		<path fill="#005B7F" d="M56.416,49.536v-5.154h1.013l2.109,3.442v-3.442h0.968v5.154h-1.045l-2.078-3.362v3.362H56.416z"/>
		<path fill="#6D6E70" d="M63.119,48.971l0.092,0.559c-0.178,0.038-0.338,0.057-0.479,0.057c-0.229,0-0.408-0.037-0.534-0.109
			s-0.216-0.168-0.268-0.286c-0.052-0.119-0.077-0.368-0.077-0.748v-2.148h-0.464v-0.492h0.464v-0.926l0.629-0.379v1.305h0.636
			v0.492h-0.636v2.185c0,0.18,0.011,0.296,0.034,0.348c0.022,0.053,0.058,0.092,0.108,0.123c0.051,0.03,0.123,0.045,0.217,0.045
			C62.911,48.994,63.004,48.987,63.119,48.971z"/>
		<path fill="#6D6E70" d="M63.921,45.109v-0.728h0.633v0.728H63.921z M63.921,49.536v-3.734h0.633v3.734H63.921z"/>
		<path fill="#6D6E70" d="M68.135,48.169l0.622,0.079c-0.068,0.43-0.242,0.767-0.522,1.009c-0.28,0.243-0.624,0.363-1.032,0.363
			c-0.511,0-0.921-0.167-1.233-0.501c-0.31-0.334-0.465-0.812-0.465-1.436c0-0.404,0.067-0.756,0.2-1.06
			c0.134-0.302,0.337-0.528,0.61-0.68c0.273-0.15,0.571-0.227,0.892-0.227c0.405,0,0.737,0.103,0.994,0.308
			c0.258,0.205,0.424,0.496,0.497,0.873l-0.616,0.096c-0.059-0.252-0.162-0.439-0.311-0.565c-0.148-0.128-0.329-0.19-0.54-0.19
			c-0.319,0-0.578,0.114-0.777,0.343s-0.299,0.589-0.299,1.084c0,0.502,0.096,0.867,0.289,1.094
			c0.191,0.229,0.443,0.341,0.752,0.341c0.249,0,0.456-0.075,0.622-0.228C67.985,48.72,68.091,48.484,68.135,48.169z"/>
		<path fill="#6D6E70" d="M69.244,47.669c0-0.691,0.192-1.203,0.576-1.536c0.322-0.277,0.713-0.415,1.175-0.415
			c0.514,0,0.934,0.168,1.259,0.505c0.326,0.336,0.489,0.801,0.489,1.395c0,0.48-0.072,0.857-0.216,1.134
			c-0.145,0.274-0.354,0.489-0.63,0.642c-0.275,0.152-0.576,0.228-0.902,0.228c-0.523,0-0.945-0.167-1.268-0.501
			C69.404,48.782,69.244,48.3,69.244,47.669z M69.894,47.669c0,0.479,0.104,0.837,0.312,1.075c0.209,0.237,0.471,0.355,0.788,0.355
			c0.314,0,0.576-0.118,0.785-0.358c0.208-0.239,0.312-0.603,0.312-1.093c0-0.462-0.104-0.812-0.314-1.05
			c-0.21-0.238-0.471-0.357-0.783-0.357c-0.317,0-0.579,0.118-0.788,0.355C69.999,46.833,69.894,47.191,69.894,47.669z"/>
		<path fill="#6D6E70" d="M76.102,49.076c-0.234,0.199-0.46,0.34-0.677,0.421c-0.217,0.082-0.45,0.123-0.698,0.123
			c-0.411,0-0.726-0.1-0.946-0.3c-0.221-0.201-0.33-0.457-0.33-0.769c0-0.183,0.041-0.35,0.124-0.501
			c0.084-0.151,0.192-0.272,0.328-0.364c0.134-0.091,0.286-0.161,0.455-0.207c0.125-0.033,0.312-0.064,0.563-0.096
			c0.511-0.061,0.887-0.133,1.129-0.218c0.002-0.087,0.003-0.142,0.003-0.165c0-0.259-0.06-0.439-0.179-0.546
			c-0.162-0.143-0.402-0.214-0.721-0.214c-0.297,0-0.518,0.053-0.659,0.157c-0.143,0.104-0.247,0.289-0.315,0.553l-0.619-0.083
			c0.056-0.266,0.149-0.48,0.278-0.643c0.129-0.163,0.315-0.288,0.559-0.376c0.244-0.088,0.527-0.132,0.848-0.132
			c0.319,0,0.578,0.037,0.777,0.112c0.199,0.074,0.346,0.169,0.439,0.283c0.094,0.113,0.16,0.257,0.197,0.432
			c0.021,0.106,0.032,0.302,0.032,0.583v0.844c0,0.589,0.014,0.961,0.04,1.116c0.027,0.157,0.081,0.306,0.16,0.448h-0.661
			C76.163,49.405,76.121,49.251,76.102,49.076z M76.049,47.662c-0.229,0.094-0.574,0.174-1.034,0.239
			c-0.26,0.037-0.444,0.079-0.552,0.127c-0.108,0.046-0.191,0.115-0.25,0.204c-0.059,0.091-0.088,0.191-0.088,0.302
			c0,0.169,0.064,0.31,0.192,0.422s0.314,0.169,0.561,0.169c0.244,0,0.461-0.054,0.651-0.159c0.19-0.107,0.33-0.253,0.418-0.438
			c0.068-0.143,0.102-0.354,0.102-0.634V47.662z"/>
		<path fill="#6D6E70" d="M77.733,49.847l0.616,0.091c0.025,0.189,0.097,0.328,0.214,0.415c0.157,0.117,0.371,0.176,0.643,0.176
			c0.293,0,0.52-0.059,0.679-0.176c0.16-0.117,0.268-0.281,0.323-0.493c0.033-0.129,0.049-0.399,0.046-0.812
			c-0.277,0.325-0.622,0.488-1.035,0.488c-0.513,0-0.91-0.185-1.191-0.555c-0.282-0.371-0.422-0.815-0.422-1.333
			c0-0.356,0.064-0.686,0.193-0.987c0.129-0.301,0.315-0.533,0.561-0.697c0.246-0.165,0.533-0.246,0.863-0.246
			c0.441,0,0.804,0.178,1.091,0.534v-0.45h0.583v3.229c0,0.582-0.06,0.993-0.178,1.235c-0.119,0.243-0.306,0.435-0.562,0.575
			c-0.257,0.141-0.573,0.212-0.948,0.212c-0.445,0-0.805-0.101-1.08-0.301C77.856,50.552,77.725,50.249,77.733,49.847z
			 M78.258,47.603c0,0.49,0.097,0.848,0.292,1.073c0.194,0.225,0.438,0.337,0.731,0.337c0.292,0,0.535-0.112,0.732-0.337
			c0.196-0.224,0.295-0.574,0.295-1.052c0-0.458-0.102-0.803-0.304-1.034c-0.203-0.232-0.447-0.349-0.734-0.349
			c-0.281,0-0.521,0.114-0.717,0.343C78.356,46.813,78.258,47.152,78.258,47.603z"/>
		<path fill="#6D6E70" d="M84.482,49.536v-0.548c-0.29,0.422-0.686,0.632-1.185,0.632c-0.22,0-0.426-0.041-0.617-0.126
			c-0.191-0.084-0.333-0.19-0.426-0.318c-0.093-0.128-0.158-0.284-0.195-0.469c-0.026-0.124-0.039-0.321-0.039-0.591v-2.314h0.632
			v2.071c0,0.33,0.013,0.553,0.039,0.668c0.04,0.167,0.125,0.297,0.253,0.393c0.129,0.095,0.289,0.143,0.478,0.143
			c0.19,0,0.369-0.05,0.535-0.146c0.167-0.098,0.284-0.229,0.354-0.397c0.068-0.168,0.104-0.41,0.104-0.729v-2.001h0.633v3.734
			H84.482z"/>
		<path fill="#6D6E70" d="M86.207,49.536v-5.154h0.633v5.154H86.207z"/>
		<path fill="#6D6E70" d="M90.438,49.076c-0.234,0.199-0.461,0.34-0.678,0.421c-0.216,0.082-0.449,0.123-0.698,0.123
			c-0.41,0-0.726-0.1-0.946-0.3c-0.22-0.201-0.331-0.457-0.331-0.769c0-0.183,0.042-0.35,0.125-0.501
			c0.083-0.151,0.192-0.272,0.328-0.364c0.134-0.091,0.287-0.161,0.456-0.207c0.124-0.033,0.312-0.064,0.562-0.096
			c0.511-0.061,0.887-0.133,1.129-0.218c0.002-0.087,0.003-0.142,0.003-0.165c0-0.259-0.06-0.439-0.179-0.546
			c-0.162-0.143-0.402-0.214-0.721-0.214c-0.297,0-0.518,0.053-0.659,0.157c-0.142,0.104-0.247,0.289-0.315,0.553l-0.619-0.083
			c0.057-0.266,0.149-0.48,0.278-0.643c0.129-0.163,0.315-0.288,0.56-0.376c0.244-0.088,0.526-0.132,0.847-0.132
			c0.319,0,0.578,0.037,0.777,0.112c0.199,0.074,0.345,0.169,0.439,0.283c0.095,0.113,0.16,0.257,0.197,0.432
			c0.021,0.106,0.032,0.302,0.032,0.583v0.844c0,0.589,0.014,0.961,0.041,1.116c0.026,0.157,0.08,0.306,0.159,0.448h-0.661
			C90.499,49.405,90.456,49.251,90.438,49.076z M90.385,47.662c-0.229,0.094-0.574,0.174-1.034,0.239
			c-0.26,0.037-0.444,0.079-0.552,0.127c-0.108,0.046-0.191,0.115-0.25,0.204c-0.059,0.091-0.088,0.191-0.088,0.302
			c0,0.169,0.063,0.31,0.191,0.422s0.315,0.169,0.561,0.169c0.244,0,0.461-0.054,0.651-0.159c0.19-0.107,0.33-0.253,0.418-0.438
			c0.069-0.143,0.102-0.354,0.102-0.634V47.662z"/>
		<path fill="#6D6E70" d="M93.568,48.971l0.091,0.559c-0.178,0.038-0.337,0.057-0.478,0.057c-0.229,0-0.409-0.037-0.535-0.109
			s-0.215-0.168-0.267-0.286c-0.051-0.119-0.078-0.368-0.078-0.748v-2.148h-0.464v-0.492h0.464v-0.926l0.63-0.379v1.305h0.637v0.492
			h-0.637v2.185c0,0.18,0.011,0.296,0.033,0.348c0.023,0.053,0.059,0.092,0.109,0.123c0.05,0.03,0.123,0.045,0.216,0.045
			C93.361,48.994,93.453,48.987,93.568,48.971z"/>
		<path fill="#6D6E70" d="M94.371,45.109v-0.728h0.633v0.728H94.371z M94.371,49.536v-3.734h0.633v3.734H94.371z"/>
		<path fill="#6D6E70" d="M95.912,47.669c0-0.691,0.192-1.203,0.577-1.536c0.321-0.277,0.712-0.415,1.175-0.415
			c0.513,0,0.932,0.168,1.258,0.505c0.326,0.336,0.489,0.801,0.489,1.395c0,0.48-0.072,0.857-0.217,1.134
			c-0.144,0.274-0.354,0.489-0.629,0.642c-0.275,0.152-0.576,0.228-0.901,0.228c-0.523,0-0.945-0.167-1.268-0.501
			C96.072,48.782,95.912,48.3,95.912,47.669z M96.562,47.669c0,0.479,0.104,0.837,0.313,1.075c0.209,0.237,0.471,0.355,0.788,0.355
			c0.314,0,0.575-0.118,0.783-0.358c0.209-0.239,0.313-0.603,0.313-1.093c0-0.462-0.105-0.812-0.314-1.05
			c-0.21-0.238-0.47-0.357-0.782-0.357c-0.317,0-0.579,0.118-0.788,0.355C96.667,46.833,96.562,47.191,96.562,47.669z"/>
		<path fill="#6D6E70" d="M100.333,49.536v-3.734h0.57v0.53c0.274-0.409,0.671-0.614,1.188-0.614c0.225,0,0.432,0.039,0.621,0.121
			c0.189,0.08,0.33,0.187,0.424,0.317c0.094,0.132,0.16,0.288,0.197,0.468c0.024,0.118,0.035,0.323,0.035,0.616v2.296h-0.633v-2.271
			c0-0.258-0.024-0.45-0.074-0.579c-0.049-0.127-0.137-0.229-0.262-0.305c-0.126-0.076-0.273-0.115-0.442-0.115
			c-0.27,0-0.502,0.086-0.698,0.258c-0.195,0.171-0.293,0.495-0.293,0.974v2.039H100.333z"/>
		<path fill="#6D6E70" d="M106.445,48.422l0.626-0.099c0.036,0.25,0.133,0.443,0.293,0.577c0.162,0.134,0.386,0.199,0.674,0.199
			c0.291,0,0.507-0.059,0.647-0.178c0.141-0.117,0.211-0.257,0.211-0.416c0-0.143-0.062-0.256-0.187-0.337
			c-0.086-0.057-0.302-0.128-0.646-0.215c-0.464-0.117-0.786-0.219-0.965-0.305c-0.18-0.085-0.315-0.203-0.408-0.354
			c-0.092-0.151-0.139-0.318-0.139-0.502c0-0.166,0.038-0.32,0.114-0.462c0.076-0.142,0.179-0.26,0.311-0.354
			c0.099-0.073,0.232-0.134,0.402-0.184c0.17-0.052,0.353-0.076,0.547-0.076c0.293,0,0.55,0.042,0.772,0.127
			c0.222,0.084,0.385,0.198,0.491,0.342c0.105,0.145,0.178,0.337,0.218,0.579l-0.619,0.085c-0.028-0.193-0.11-0.344-0.245-0.451
			s-0.325-0.161-0.571-0.161c-0.292,0-0.499,0.048-0.623,0.144c-0.125,0.097-0.186,0.209-0.186,0.339
			c0,0.081,0.026,0.155,0.077,0.22c0.051,0.068,0.133,0.125,0.242,0.17c0.064,0.022,0.25,0.077,0.56,0.162
			c0.448,0.118,0.76,0.217,0.938,0.293c0.176,0.075,0.315,0.188,0.416,0.333c0.101,0.145,0.151,0.324,0.151,0.541
			c0,0.21-0.061,0.409-0.184,0.597c-0.123,0.186-0.301,0.33-0.533,0.432c-0.232,0.102-0.495,0.152-0.788,0.152
			c-0.485,0-0.855-0.1-1.11-0.302C106.679,49.117,106.516,48.818,106.445,48.422z"/>
		<path fill="#005B7F" d="M111.689,49.536v-4.283h-1.53v-0.871h4.097v0.871h-1.526v4.283H111.689z"/>
		<path fill="#6D6E70" d="M115.053,49.536v-3.734h0.569v0.566c0.146-0.266,0.28-0.439,0.402-0.523
			c0.123-0.085,0.259-0.127,0.406-0.127c0.214,0,0.431,0.067,0.65,0.203l-0.218,0.587c-0.154-0.091-0.309-0.137-0.464-0.137
			c-0.138,0-0.262,0.043-0.372,0.125c-0.11,0.084-0.189,0.199-0.236,0.347c-0.07,0.225-0.105,0.471-0.105,0.738v1.955H115.053z"/>
		<path fill="#6D6E70" d="M120.074,49.076c-0.234,0.199-0.46,0.34-0.677,0.421c-0.217,0.082-0.449,0.123-0.698,0.123
			c-0.41,0-0.726-0.1-0.946-0.3c-0.22-0.201-0.33-0.457-0.33-0.769c0-0.183,0.041-0.35,0.125-0.501
			c0.083-0.151,0.191-0.272,0.326-0.364c0.135-0.091,0.287-0.161,0.456-0.207c0.124-0.033,0.312-0.064,0.563-0.096
			c0.51-0.061,0.887-0.133,1.128-0.218c0.002-0.087,0.004-0.142,0.004-0.165c0-0.259-0.061-0.439-0.18-0.546
			c-0.162-0.143-0.402-0.214-0.721-0.214c-0.297,0-0.517,0.053-0.659,0.157c-0.142,0.104-0.247,0.289-0.315,0.553l-0.619-0.083
			c0.056-0.266,0.149-0.48,0.277-0.643c0.129-0.163,0.316-0.288,0.56-0.376s0.526-0.132,0.848-0.132
			c0.318,0,0.578,0.037,0.778,0.112c0.198,0.074,0.345,0.169,0.439,0.283c0.094,0.113,0.159,0.257,0.196,0.432
			c0.021,0.106,0.032,0.302,0.032,0.583v0.844c0,0.589,0.014,0.961,0.042,1.116c0.025,0.157,0.08,0.306,0.159,0.448h-0.661
			C120.135,49.405,120.093,49.251,120.074,49.076z M120.021,47.662c-0.23,0.094-0.575,0.174-1.034,0.239
			c-0.26,0.037-0.444,0.079-0.553,0.127c-0.108,0.046-0.19,0.115-0.25,0.204c-0.058,0.091-0.088,0.191-0.088,0.302
			c0,0.169,0.065,0.31,0.191,0.422c0.128,0.112,0.315,0.169,0.562,0.169c0.244,0,0.46-0.054,0.65-0.159
			c0.19-0.107,0.33-0.253,0.419-0.438c0.068-0.143,0.101-0.354,0.101-0.634V47.662z"/>
		<path fill="#6D6E70" d="M123.205,48.971l0.092,0.559c-0.178,0.038-0.337,0.057-0.479,0.057c-0.229,0-0.409-0.037-0.535-0.109
			c-0.126-0.072-0.215-0.168-0.267-0.286c-0.051-0.119-0.077-0.368-0.077-0.748v-2.148h-0.465v-0.492h0.465v-0.926l0.63-0.379v1.305
			h0.636v0.492h-0.636v2.185c0,0.18,0.01,0.296,0.032,0.348c0.023,0.053,0.059,0.092,0.109,0.123
			c0.051,0.03,0.123,0.045,0.217,0.045C122.998,48.994,123.09,48.987,123.205,48.971z"/>
		<path fill="#005B7F" d="M124.053,49.536v-5.154h3.822v0.871h-2.781v1.144h2.587v0.868h-2.587v1.403h2.88v0.868H124.053z"/>
		<path fill="#6D6E70" d="M128.871,49.847l0.616,0.091c0.025,0.189,0.098,0.328,0.214,0.415c0.157,0.117,0.372,0.176,0.644,0.176
			c0.293,0,0.52-0.059,0.679-0.176s0.268-0.281,0.323-0.493c0.033-0.129,0.049-0.399,0.047-0.812
			c-0.277,0.325-0.622,0.488-1.034,0.488c-0.513,0-0.911-0.185-1.192-0.555c-0.28-0.371-0.421-0.815-0.421-1.333
			c0-0.356,0.064-0.686,0.193-0.987c0.129-0.301,0.316-0.533,0.562-0.697c0.244-0.165,0.532-0.246,0.862-0.246
			c0.441,0,0.805,0.178,1.091,0.534v-0.45h0.583v3.229c0,0.582-0.059,0.993-0.178,1.235c-0.117,0.243-0.305,0.435-0.562,0.575
			s-0.573,0.212-0.948,0.212c-0.445,0-0.805-0.101-1.079-0.301S128.862,50.249,128.871,49.847z M129.396,47.603
			c0,0.49,0.097,0.848,0.291,1.073c0.195,0.225,0.438,0.337,0.731,0.337c0.291,0,0.534-0.112,0.731-0.337
			c0.196-0.224,0.296-0.574,0.296-1.052c0-0.458-0.102-0.803-0.305-1.034c-0.202-0.232-0.447-0.349-0.732-0.349
			c-0.282,0-0.521,0.114-0.718,0.343C129.494,46.813,129.396,47.152,129.396,47.603z"/>
		<path fill="#6D6E70" d="M133.176,45.109v-0.728h0.633v0.728H133.176z M133.176,49.536v-3.734h0.633v3.734H133.176z"/>
		<path fill="#6D6E70" d="M137.509,48.333l0.655,0.082c-0.104,0.382-0.295,0.678-0.574,0.89c-0.279,0.21-0.636,0.315-1.068,0.315
			c-0.547,0-0.98-0.167-1.3-0.504c-0.321-0.337-0.48-0.809-0.48-1.415c0-0.629,0.162-1.116,0.485-1.463
			c0.324-0.348,0.743-0.521,1.259-0.521c0.5,0,0.907,0.17,1.225,0.51c0.316,0.34,0.475,0.817,0.475,1.435
			c0,0.038-0.002,0.094-0.004,0.17h-2.785c0.023,0.409,0.14,0.724,0.349,0.942c0.208,0.217,0.469,0.325,0.78,0.325
			c0.232,0,0.43-0.06,0.594-0.183C137.284,48.796,137.414,48.601,137.509,48.333z M135.431,47.311h2.086
			c-0.029-0.314-0.108-0.55-0.239-0.707c-0.203-0.244-0.463-0.365-0.784-0.365c-0.291,0-0.536,0.098-0.733,0.291
			C135.562,46.725,135.453,46.984,135.431,47.311z"/>
		<path fill="#6D6E70" d="M138.884,48.422l0.627-0.099c0.034,0.25,0.133,0.443,0.293,0.577c0.161,0.134,0.386,0.199,0.674,0.199
			c0.291,0,0.507-0.059,0.647-0.178c0.14-0.117,0.211-0.257,0.211-0.416c0-0.143-0.062-0.256-0.188-0.337
			c-0.087-0.057-0.301-0.128-0.646-0.215c-0.466-0.117-0.787-0.219-0.966-0.305c-0.179-0.085-0.315-0.203-0.409-0.354
			c-0.092-0.151-0.138-0.318-0.138-0.502c0-0.166,0.038-0.32,0.114-0.462s0.18-0.26,0.311-0.354
			c0.099-0.073,0.233-0.134,0.403-0.184c0.17-0.052,0.353-0.076,0.547-0.076c0.293,0,0.55,0.042,0.771,0.127
			c0.222,0.084,0.385,0.198,0.49,0.342c0.106,0.145,0.179,0.337,0.218,0.579l-0.618,0.085c-0.028-0.193-0.11-0.344-0.244-0.451
			c-0.135-0.107-0.326-0.161-0.572-0.161c-0.291,0-0.498,0.048-0.622,0.144c-0.123,0.097-0.186,0.209-0.186,0.339
			c0,0.081,0.025,0.155,0.077,0.22c0.051,0.068,0.132,0.125,0.242,0.17c0.063,0.022,0.249,0.077,0.559,0.162
			c0.448,0.118,0.761,0.217,0.938,0.293c0.177,0.075,0.316,0.188,0.416,0.333c0.102,0.145,0.152,0.324,0.152,0.541
			c0,0.21-0.062,0.409-0.185,0.597c-0.123,0.186-0.302,0.33-0.532,0.432c-0.233,0.102-0.495,0.152-0.789,0.152
			c-0.485,0-0.854-0.1-1.108-0.302C139.118,49.117,138.956,48.818,138.884,48.422z"/>
		<path fill="#6D6E70" d="M145.104,45.109v-0.728h0.633v0.728H145.104z M145.104,49.536v-3.734h0.633v3.734H145.104z"/>
		<path fill="#6D6E70" d="M146.879,49.536v-3.734h0.57v0.53c0.274-0.409,0.671-0.614,1.188-0.614c0.226,0,0.432,0.039,0.621,0.121
			c0.188,0.08,0.33,0.187,0.424,0.317c0.094,0.132,0.159,0.288,0.196,0.468c0.023,0.118,0.035,0.323,0.035,0.616v2.296h-0.632
			v-2.271c0-0.258-0.025-0.45-0.074-0.579c-0.05-0.127-0.137-0.229-0.263-0.305c-0.125-0.076-0.272-0.115-0.441-0.115
			c-0.269,0-0.502,0.086-0.697,0.258c-0.196,0.171-0.294,0.495-0.294,0.974v2.039H146.879z"/>
		<path fill="#6D6E70" d="M157.005,47.729l0.683,0.173c-0.144,0.561-0.399,0.988-0.771,1.281c-0.372,0.295-0.826,0.441-1.363,0.441
			c-0.556,0-1.008-0.112-1.355-0.339s-0.613-0.555-0.795-0.983s-0.272-0.89-0.272-1.382c0-0.537,0.103-1.005,0.308-1.404
			s0.497-0.703,0.876-0.91c0.379-0.208,0.796-0.312,1.25-0.312c0.516,0,0.949,0.132,1.302,0.395
			c0.351,0.262,0.596,0.631,0.734,1.107l-0.672,0.159c-0.119-0.376-0.293-0.649-0.521-0.82s-0.514-0.258-0.858-0.258
			c-0.396,0-0.727,0.097-0.992,0.286c-0.267,0.189-0.453,0.444-0.562,0.765c-0.107,0.32-0.162,0.65-0.162,0.99
			c0,0.438,0.064,0.821,0.192,1.147c0.127,0.327,0.326,0.572,0.596,0.733c0.27,0.162,0.562,0.243,0.876,0.243
			c0.382,0,0.705-0.11,0.97-0.331S156.912,48.163,157.005,47.729z"/>
		<path fill="#6D6E70" d="M161.065,49.076c-0.234,0.199-0.461,0.34-0.677,0.421c-0.217,0.082-0.45,0.123-0.698,0.123
			c-0.41,0-0.726-0.1-0.946-0.3c-0.22-0.201-0.33-0.457-0.33-0.769c0-0.183,0.042-0.35,0.124-0.501
			c0.084-0.151,0.192-0.272,0.328-0.364c0.134-0.091,0.285-0.161,0.455-0.207c0.124-0.033,0.312-0.064,0.562-0.096
			c0.512-0.061,0.888-0.133,1.129-0.218c0.002-0.087,0.004-0.142,0.004-0.165c0-0.259-0.061-0.439-0.18-0.546
			c-0.162-0.143-0.402-0.214-0.721-0.214c-0.299,0-0.518,0.053-0.659,0.157c-0.143,0.104-0.247,0.289-0.315,0.553l-0.619-0.083
			c0.057-0.266,0.148-0.48,0.279-0.643c0.128-0.163,0.314-0.288,0.558-0.376c0.244-0.088,0.526-0.132,0.849-0.132
			c0.318,0,0.577,0.037,0.776,0.112c0.199,0.074,0.346,0.169,0.439,0.283c0.094,0.113,0.159,0.257,0.197,0.432
			c0.021,0.106,0.031,0.302,0.031,0.583v0.844c0,0.589,0.014,0.961,0.041,1.116c0.027,0.157,0.08,0.306,0.159,0.448h-0.66
			C161.125,49.405,161.083,49.251,161.065,49.076z M161.012,47.662c-0.23,0.094-0.574,0.174-1.033,0.239
			c-0.261,0.037-0.444,0.079-0.554,0.127c-0.107,0.046-0.19,0.115-0.249,0.204c-0.058,0.091-0.088,0.191-0.088,0.302
			c0,0.169,0.063,0.31,0.191,0.422c0.129,0.112,0.315,0.169,0.562,0.169c0.243,0,0.46-0.054,0.65-0.159
			c0.19-0.107,0.33-0.253,0.418-0.438c0.068-0.143,0.103-0.354,0.103-0.634V47.662z"/>
		<path fill="#005B7F" d="M162.873,49.536v-5.154h1.013l2.11,3.442v-3.442h0.967v5.154h-1.044l-2.079-3.362v3.362H162.873z"/>
		<path fill="#6D6E70" d="M170.631,49.076c-0.235,0.199-0.461,0.34-0.677,0.421c-0.218,0.082-0.45,0.123-0.698,0.123
			c-0.411,0-0.726-0.1-0.946-0.3c-0.221-0.201-0.33-0.457-0.33-0.769c0-0.183,0.042-0.35,0.125-0.501s0.192-0.272,0.326-0.364
			c0.135-0.091,0.287-0.161,0.456-0.207c0.124-0.033,0.312-0.064,0.562-0.096c0.511-0.061,0.887-0.133,1.129-0.218
			c0.003-0.087,0.003-0.142,0.003-0.165c0-0.259-0.06-0.439-0.179-0.546c-0.162-0.143-0.402-0.214-0.721-0.214
			c-0.299,0-0.519,0.053-0.66,0.157c-0.142,0.104-0.247,0.289-0.314,0.553l-0.618-0.083c0.056-0.266,0.147-0.48,0.276-0.643
			c0.13-0.163,0.315-0.288,0.56-0.376c0.243-0.088,0.526-0.132,0.848-0.132c0.318,0,0.579,0.037,0.776,0.112
			c0.2,0.074,0.347,0.169,0.44,0.283c0.094,0.113,0.159,0.257,0.196,0.432c0.021,0.106,0.032,0.302,0.032,0.583v0.844
			c0,0.589,0.014,0.961,0.04,1.116c0.027,0.157,0.08,0.306,0.161,0.448h-0.662C170.692,49.405,170.65,49.251,170.631,49.076z
			 M170.579,47.662c-0.23,0.094-0.575,0.174-1.034,0.239c-0.261,0.037-0.444,0.079-0.552,0.127c-0.108,0.046-0.191,0.115-0.25,0.204
			c-0.059,0.091-0.088,0.191-0.088,0.302c0,0.169,0.064,0.31,0.191,0.422c0.128,0.112,0.315,0.169,0.562,0.169
			c0.243,0,0.46-0.054,0.65-0.159c0.189-0.107,0.329-0.253,0.419-0.438c0.067-0.143,0.102-0.354,0.102-0.634V47.662z"/>
		<path fill="#6D6E70" d="M174.803,49.536v-0.471c-0.238,0.371-0.586,0.555-1.045,0.555c-0.298,0-0.571-0.081-0.822-0.245
			c-0.249-0.164-0.442-0.394-0.58-0.688c-0.137-0.293-0.205-0.632-0.205-1.014c0-0.372,0.062-0.711,0.187-1.014
			c0.124-0.305,0.311-0.537,0.559-0.699c0.249-0.161,0.526-0.242,0.834-0.242c0.225,0,0.426,0.047,0.602,0.143
			c0.175,0.095,0.318,0.219,0.429,0.371v-1.85h0.63v5.154H174.803z M172.801,47.673c0,0.478,0.101,0.836,0.303,1.072
			c0.201,0.237,0.439,0.354,0.714,0.354c0.276,0,0.511-0.112,0.705-0.339c0.193-0.226,0.29-0.571,0.29-1.035
			c0-0.512-0.099-0.887-0.296-1.126c-0.196-0.238-0.439-0.358-0.728-0.358c-0.281,0-0.517,0.115-0.705,0.345
			C172.895,46.815,172.801,47.178,172.801,47.673z"/>
		<path fill="#6D6E70" d="M176.568,45.109v-0.728h0.634v0.728H176.568z M176.568,49.536v-3.734h0.634v3.734H176.568z"/>
		<path fill="#6D6E70" d="M180.782,49.076c-0.234,0.199-0.46,0.34-0.677,0.421c-0.217,0.082-0.449,0.123-0.698,0.123
			c-0.41,0-0.726-0.1-0.945-0.3c-0.221-0.201-0.331-0.457-0.331-0.769c0-0.183,0.042-0.35,0.124-0.501
			c0.084-0.151,0.192-0.272,0.328-0.364c0.135-0.091,0.286-0.161,0.455-0.207c0.124-0.033,0.312-0.064,0.562-0.096
			c0.511-0.061,0.888-0.133,1.13-0.218c0.001-0.087,0.003-0.142,0.003-0.165c0-0.259-0.061-0.439-0.18-0.546
			c-0.162-0.143-0.402-0.214-0.721-0.214c-0.298,0-0.518,0.053-0.659,0.157c-0.143,0.104-0.247,0.289-0.315,0.553l-0.619-0.083
			c0.057-0.266,0.149-0.48,0.278-0.643c0.129-0.163,0.315-0.288,0.56-0.376s0.526-0.132,0.848-0.132
			c0.318,0,0.577,0.037,0.777,0.112c0.198,0.074,0.346,0.169,0.439,0.283c0.093,0.113,0.158,0.257,0.196,0.432
			c0.021,0.106,0.032,0.302,0.032,0.583v0.844c0,0.589,0.013,0.961,0.039,1.116c0.027,0.157,0.082,0.306,0.16,0.448h-0.66
			C180.843,49.405,180.801,49.251,180.782,49.076z M180.73,47.662c-0.23,0.094-0.575,0.174-1.035,0.239
			c-0.26,0.037-0.444,0.079-0.552,0.127c-0.107,0.046-0.191,0.115-0.249,0.204c-0.06,0.091-0.088,0.191-0.088,0.302
			c0,0.169,0.062,0.31,0.191,0.422c0.128,0.112,0.313,0.169,0.56,0.169c0.245,0,0.461-0.054,0.651-0.159
			c0.19-0.107,0.329-0.253,0.418-0.438c0.068-0.143,0.104-0.354,0.104-0.634V47.662z"/>
		<path fill="#6D6E70" d="M182.531,49.536v-3.734h0.57v0.53c0.273-0.409,0.669-0.614,1.188-0.614c0.225,0,0.432,0.039,0.62,0.121
			c0.188,0.08,0.329,0.187,0.423,0.317c0.094,0.132,0.16,0.288,0.198,0.468c0.023,0.118,0.035,0.323,0.035,0.616v2.296h-0.634
			v-2.271c0-0.258-0.024-0.45-0.074-0.579c-0.048-0.127-0.136-0.229-0.262-0.305c-0.125-0.076-0.272-0.115-0.441-0.115
			c-0.27,0-0.501,0.086-0.697,0.258c-0.196,0.171-0.294,0.495-0.294,0.974v2.039H182.531z"/>
		<path fill="#6D6E70" d="M188.897,50.968v-5.166h0.576v0.485c0.136-0.19,0.29-0.332,0.461-0.427
			c0.172-0.096,0.379-0.143,0.623-0.143c0.319,0,0.6,0.081,0.844,0.246c0.244,0.164,0.428,0.396,0.552,0.695
			c0.125,0.298,0.187,0.626,0.187,0.981c0,0.383-0.068,0.728-0.206,1.032c-0.138,0.306-0.336,0.54-0.598,0.704
			c-0.262,0.162-0.536,0.243-0.824,0.243c-0.212,0-0.399-0.044-0.567-0.133c-0.169-0.089-0.306-0.201-0.413-0.337v1.817H188.897z
			 M189.471,47.689c0,0.481,0.097,0.837,0.291,1.066s0.431,0.344,0.706,0.344c0.282,0,0.522-0.118,0.723-0.355
			c0.202-0.238,0.302-0.606,0.302-1.106c0-0.476-0.099-0.833-0.295-1.069c-0.195-0.236-0.43-0.354-0.7-0.354
			c-0.271,0-0.508,0.126-0.717,0.377C189.574,46.843,189.471,47.209,189.471,47.689z"/>
		<path fill="#6D6E70" d="M195.519,49.076c-0.234,0.199-0.461,0.34-0.678,0.421c-0.216,0.082-0.449,0.123-0.698,0.123
			c-0.41,0-0.725-0.1-0.945-0.3c-0.22-0.201-0.33-0.457-0.33-0.769c0-0.183,0.042-0.35,0.125-0.501
			c0.082-0.151,0.191-0.272,0.327-0.364c0.134-0.091,0.286-0.161,0.455-0.207c0.124-0.033,0.312-0.064,0.563-0.096
			c0.51-0.061,0.887-0.133,1.128-0.218c0.001-0.087,0.003-0.142,0.003-0.165c0-0.259-0.061-0.439-0.179-0.546
			c-0.162-0.143-0.402-0.214-0.722-0.214c-0.297,0-0.517,0.053-0.658,0.157c-0.142,0.104-0.248,0.289-0.315,0.553l-0.619-0.083
			c0.056-0.266,0.148-0.48,0.278-0.643c0.128-0.163,0.315-0.288,0.559-0.376c0.245-0.088,0.526-0.132,0.849-0.132
			c0.318,0,0.577,0.037,0.776,0.112c0.199,0.074,0.346,0.169,0.439,0.283c0.094,0.113,0.16,0.257,0.197,0.432
			c0.021,0.106,0.031,0.302,0.031,0.583v0.844c0,0.589,0.014,0.961,0.041,1.116c0.026,0.157,0.08,0.306,0.158,0.448h-0.66
			C195.58,49.405,195.539,49.251,195.519,49.076z M195.466,47.662c-0.23,0.094-0.574,0.174-1.034,0.239
			c-0.26,0.037-0.444,0.079-0.552,0.127c-0.109,0.046-0.192,0.115-0.25,0.204c-0.059,0.091-0.088,0.191-0.088,0.302
			c0,0.169,0.063,0.31,0.192,0.422c0.127,0.112,0.314,0.169,0.561,0.169c0.242,0,0.46-0.054,0.65-0.159
			c0.19-0.107,0.329-0.253,0.418-0.438c0.068-0.143,0.103-0.354,0.103-0.634V47.662z"/>
		<path fill="#005B7F" d="M198.477,49.536v-4.283h-1.531v-0.871h4.098v0.871h-1.525v4.283H198.477z"/>
		<path fill="#6D6E70" d="M201.848,45.109v-0.728h0.634v0.728H201.848z M201.848,49.536v-3.734h0.634v3.734H201.848z"/>
		<path fill="#6D6E70" d="M206.182,48.333l0.653,0.082c-0.103,0.382-0.294,0.678-0.572,0.89c-0.279,0.21-0.636,0.315-1.069,0.315
			c-0.547,0-0.98-0.167-1.299-0.504c-0.32-0.337-0.48-0.809-0.48-1.415c0-0.629,0.161-1.116,0.484-1.463
			c0.325-0.348,0.744-0.521,1.261-0.521c0.499,0,0.906,0.17,1.223,0.51c0.317,0.34,0.475,0.817,0.475,1.435
			c0,0.038-0.002,0.094-0.003,0.17h-2.786c0.024,0.409,0.141,0.724,0.349,0.942c0.209,0.217,0.47,0.325,0.781,0.325
			c0.232,0,0.43-0.06,0.594-0.183C205.956,48.796,206.086,48.601,206.182,48.333z M204.104,47.311h2.085
			c-0.028-0.314-0.107-0.55-0.239-0.707c-0.201-0.244-0.463-0.365-0.783-0.365c-0.292,0-0.536,0.098-0.733,0.291
			C204.234,46.725,204.125,46.984,204.104,47.311z"/>
		<path fill="#6D6E70" d="M207.811,49.536v-3.734h0.57v0.53c0.273-0.409,0.669-0.614,1.188-0.614c0.225,0,0.433,0.039,0.62,0.121
			c0.189,0.08,0.329,0.187,0.424,0.317c0.093,0.132,0.159,0.288,0.197,0.468c0.023,0.118,0.035,0.323,0.035,0.616v2.296h-0.633
			v-2.271c0-0.258-0.025-0.45-0.074-0.579c-0.049-0.127-0.137-0.229-0.262-0.305c-0.126-0.076-0.273-0.115-0.442-0.115
			c-0.269,0-0.501,0.086-0.697,0.258c-0.196,0.171-0.293,0.495-0.293,0.974v2.039H207.811z"/>
		<path fill="#6D6E70" d="M213.378,48.971l0.091,0.559c-0.178,0.038-0.337,0.057-0.479,0.057c-0.229,0-0.408-0.037-0.533-0.109
			c-0.127-0.072-0.216-0.168-0.268-0.286c-0.051-0.119-0.077-0.368-0.077-0.748v-2.148h-0.465v-0.492h0.465v-0.926l0.629-0.379
			v1.305h0.637v0.492h-0.637v2.185c0,0.18,0.012,0.296,0.033,0.348c0.022,0.053,0.059,0.092,0.108,0.123
			c0.052,0.03,0.123,0.045,0.218,0.045C213.171,48.994,213.264,48.987,213.378,48.971z"/>
		<path fill="#6D6E70" d="M213.924,48.422l0.625-0.099c0.036,0.25,0.134,0.443,0.295,0.577c0.16,0.134,0.385,0.199,0.674,0.199
			c0.29,0,0.506-0.059,0.646-0.178c0.141-0.117,0.212-0.257,0.212-0.416c0-0.143-0.063-0.256-0.188-0.337
			c-0.086-0.057-0.302-0.128-0.646-0.215c-0.465-0.117-0.786-0.219-0.966-0.305c-0.18-0.085-0.315-0.203-0.407-0.354
			c-0.093-0.151-0.141-0.318-0.141-0.502c0-0.166,0.039-0.32,0.114-0.462c0.077-0.142,0.181-0.26,0.312-0.354
			c0.098-0.073,0.233-0.134,0.403-0.184c0.169-0.052,0.352-0.076,0.546-0.076c0.294,0,0.551,0.042,0.772,0.127
			c0.221,0.084,0.385,0.198,0.491,0.342c0.104,0.145,0.177,0.337,0.217,0.579l-0.619,0.085c-0.027-0.193-0.108-0.344-0.244-0.451
			c-0.135-0.107-0.325-0.161-0.571-0.161c-0.29,0-0.499,0.048-0.622,0.144c-0.124,0.097-0.188,0.209-0.188,0.339
			c0,0.081,0.026,0.155,0.077,0.22c0.052,0.068,0.133,0.125,0.243,0.17c0.063,0.022,0.25,0.077,0.56,0.162
			c0.447,0.118,0.761,0.217,0.937,0.293c0.178,0.075,0.316,0.188,0.418,0.333c0.1,0.145,0.149,0.324,0.149,0.541
			c0,0.21-0.062,0.409-0.184,0.597c-0.124,0.186-0.301,0.33-0.532,0.432c-0.233,0.102-0.495,0.152-0.788,0.152
			c-0.485,0-0.855-0.1-1.109-0.302C214.157,49.117,213.995,48.818,213.924,48.422z"/>
		<path fill="#6D6E70" d="M220.829,49.536l-1.143-3.734h0.653l0.595,2.155l0.222,0.802c0.009-0.039,0.074-0.297,0.193-0.771
			l0.595-2.187h0.65l0.56,2.166l0.186,0.714l0.215-0.72l0.639-2.16h0.617l-1.169,3.734h-0.658l-0.593-2.235l-0.145-0.637
			l-0.757,2.872H220.829z"/>
		<path fill="#6D6E70" d="M225.524,45.109v-0.728h0.633v0.728H225.524z M225.524,49.536v-3.734h0.633v3.734H225.524z"/>
		<path fill="#6D6E70" d="M228.683,48.971l0.091,0.559c-0.178,0.038-0.337,0.057-0.479,0.057c-0.229,0-0.408-0.037-0.533-0.109
			c-0.128-0.072-0.217-0.168-0.268-0.286c-0.052-0.119-0.077-0.368-0.077-0.748v-2.148h-0.465v-0.492h0.465v-0.926l0.629-0.379
			v1.305h0.637v0.492h-0.637v2.185c0,0.18,0.012,0.296,0.033,0.348c0.022,0.053,0.058,0.092,0.108,0.123
			c0.052,0.03,0.123,0.045,0.217,0.045C228.475,48.994,228.569,48.987,228.683,48.971z"/>
		<path fill="#6D6E70" d="M229.482,49.536v-5.154h0.632v1.85c0.296-0.343,0.668-0.514,1.119-0.514c0.277,0,0.518,0.055,0.721,0.163
			c0.204,0.109,0.351,0.26,0.438,0.451c0.088,0.193,0.133,0.473,0.133,0.838v2.366h-0.634V47.17c0-0.317-0.068-0.548-0.205-0.691
			c-0.138-0.144-0.331-0.216-0.582-0.216c-0.188,0-0.364,0.048-0.53,0.146c-0.164,0.098-0.283,0.229-0.353,0.396
			c-0.07,0.166-0.106,0.396-0.106,0.688v2.043H229.482z"/>
		<path fill="#005B7F" d="M239.196,47.641l1.008,0.321c-0.154,0.562-0.411,0.979-0.771,1.252c-0.36,0.273-0.816,0.41-1.37,0.41
			c-0.685,0-1.247-0.233-1.688-0.702c-0.44-0.467-0.66-1.105-0.66-1.917c0-0.858,0.22-1.524,0.663-1.999
			c0.443-0.476,1.025-0.713,1.747-0.713c0.631,0,1.144,0.188,1.538,0.56c0.234,0.22,0.41,0.537,0.527,0.949l-1.03,0.246
			c-0.061-0.268-0.188-0.478-0.383-0.633c-0.192-0.155-0.428-0.232-0.705-0.232c-0.381,0-0.691,0.137-0.929,0.412
			c-0.238,0.274-0.358,0.718-0.358,1.333c0,0.651,0.118,1.115,0.353,1.393c0.234,0.276,0.538,0.415,0.915,0.415
			c0.275,0,0.514-0.089,0.713-0.265S239.109,48.019,239.196,47.641z"/>
		<path fill="#005B7F" d="M245.926,49.536h-1.131l-0.451-1.171h-2.061l-0.425,1.171h-1.105l2.008-5.154h1.102L245.926,49.536z
			 M244.009,47.497l-0.709-1.913l-0.696,1.913H244.009z"/>
		<path fill="#005B7F" d="M246.656,44.382h1.902c0.429,0,0.757,0.032,0.981,0.099c0.302,0.088,0.562,0.246,0.777,0.474
			c0.214,0.228,0.379,0.506,0.492,0.835c0.112,0.33,0.169,0.736,0.169,1.219c0,0.425-0.054,0.791-0.159,1.098
			c-0.129,0.375-0.313,0.679-0.552,0.91c-0.181,0.176-0.424,0.312-0.731,0.411c-0.23,0.073-0.538,0.109-0.921,0.109h-1.959V44.382z
			 M247.697,45.253v3.415h0.776c0.29,0,0.501-0.017,0.629-0.049c0.169-0.042,0.31-0.114,0.421-0.215s0.203-0.267,0.273-0.498
			s0.105-0.545,0.105-0.944c0-0.397-0.035-0.704-0.105-0.918c-0.07-0.213-0.169-0.38-0.296-0.499
			c-0.126-0.119-0.288-0.2-0.481-0.242c-0.146-0.033-0.43-0.05-0.854-0.05H247.697z"/>
	</g>
</g>
</svg>
